<svg id="Capa_1" enable-background="new 0 0 512 512" height="512" viewBox="0 0 512 512" width="512" xmlns="http://www.w3.org/2000/svg"><g><g><path d="m256 0c-124.18 0-227.47 42.7-227.47 166.33 0 147.98 156.39 345.67 227.47 345.67 70.89 0 227.47-197.33 227.47-345.67 0-123.67-103.35-166.33-227.47-166.33zm102.77 202.86-120 195c-8.82 14.34-31.07 5.33-27.41-11.11l25-112.53-52.42 10.49c-13.13 2.62-22.88-12.05-15.35-23.14 43.31-63.77 113.81-168.36 118.68-177.65 7.7-15.3 32.41-8.16 27.68 11.58-2.61 10.9-20.82 83.81-23.65 95.14l51.76-10.35c12.81-2.56 22.57 11.43 15.71 22.57zm-102.32 3.5c2.59-10.38 5.49-21.99 8.43-33.77-17.54 26.16-36.48 54.2-50.91 75.52 41.54-8.21 39.4-8.11 42.03-8.11 9.56 0 16.73 8.86 14.64 18.25l-10.63 47.87 55.17-89.66-41.24 8.25c-10.78 2.16-20.16-7.67-17.49-18.35z"/></g></g></svg>