<svg id="Capa_1" enable-background="new 0 0 512 512" height="512" viewBox="0 0 512 512" width="512" xmlns="http://www.w3.org/2000/svg"><g><path d="m256 0c-124.12 0-227.469 42.662-227.469 166.327 0 148.34 156.582 345.673 227.469 345.673 71.08 0 227.469-197.686 227.469-345.673 0-123.628-103.287-166.327-227.469-166.327zm0 482c-48.148 0-197.469-178.22-197.469-315.673 0-106.052 91.899-136.327 197.469-136.327 105.567 0 197.469 30.274 197.469 136.327 0 136.065-148.32 315.673-197.469 315.673z"/><path d="m343.058 180.292-51.761 10.352c2.654-10.628 21.034-84.218 23.653-95.14 4.746-19.794-20.04-26.769-27.679-11.587-4.874 9.289-75.369 113.88-118.68 177.656-7.52 11.074 2.203 25.764 15.351 23.136l52.42-10.484-25.004 112.521c-3.653 16.435 18.587 25.466 27.417 11.115l120-195c6.851-11.132-2.888-25.133-15.717-22.569zm-83.052 125.828 10.637-47.866c2.345-10.551-6.94-20.091-17.584-17.962l-39.093 7.818c14.433-21.316 33.377-49.358 50.919-75.522-2.941 11.782-5.841 23.392-8.437 33.774-2.667 10.667 6.705 20.506 17.494 18.347l41.239-8.248z"/></g></svg>